<?xml version="1.0" standalone="no"?>
<!DOCTYPE svg PUBLIC "-//W3C//DTD SVG 20010904//EN"
 "http://www.w3.org/TR/2001/REC-SVG-20010904/DTD/svg10.dtd">
<svg version="1.0" xmlns="http://www.w3.org/2000/svg"
 width="500.000000pt" height="500.000000pt" viewBox="0 0 500.000000 500.000000"
 preserveAspectRatio="xMidYMid meet">

<g transform="translate(0.000000,500.000000) scale(0.100000,-0.100000)"
fill="#fff" stroke="#fff">
<path d="M1950 3153 c0 -27 5 -43 12 -43 9 0 9 -3 0 -12 -7 -7 -12 -21 -11
-32 0 -20 1 -20 9 1 5 12 29 42 54 66 49 47 54 57 31 57 -8 0 -15 -6 -15 -12
0 -9 -3 -10 -8 -2 -4 6 -22 13 -39 16 -33 5 -33 4 -33 -39z"/>
<path d="M2153 3193 c9 -2 23 -2 30 0 6 3 -1 5 -18 5 -16 0 -22 -2 -12 -5z"/>
<path d="M2732 3193 l328 -3 3 -550 2 -550 0 552 0 553 -330 0 -330 0 327 -2z"/>
<path d="M1930 2635 c0 -302 2 -546 5 -543 7 6 7 1079 1 1086 -4 3 -6 -241 -6
-543z"/>
<path d="M2938 2813 c7 -3 16 -2 19 1 4 3 -2 6 -13 5 -11 0 -14 -3 -6 -6z"/>
<path d="M2974 2765 c-20 -22 -20 -25 -5 -37 9 -7 13 -8 8 -3 -4 4 0 16 9 26
9 10 14 22 13 28 -2 5 -14 -1 -25 -14z"/>
<path d="M2920 2646 c0 -9 30 -14 35 -6 4 6 -3 10 -14 10 -12 0 -21 -2 -21 -4z"/>
<path d="M2315 2630 c9 -15 10 -513 1 -528 -11 -18 2 -32 32 -32 l27 0 0 285
0 285 -33 0 c-20 0 -31 -4 -27 -10z"/>
<path d="M2824 2613 c-26 -5 -22 -39 5 -46 14 -3 18 2 18 24 0 16 -1 28 -1 28
-1 -1 -11 -4 -22 -6z"/>
<path d="M2844 2415 c3 -9 0 -15 -9 -15 -8 0 -15 4 -15 10 0 5 -7 7 -15 4 -18
-7 -20 -24 -2 -24 9 0 12 -36 12 -145 0 -80 -3 -145 -7 -145 -5 0 -8 -7 -8
-15 0 -10 11 -15 35 -15 19 0 35 5 35 10 0 6 -6 10 -14 10 -13 0 -14 22 -2
268 2 41 -1 72 -7 72 -5 0 -7 -7 -3 -15z"/>
<path d="M2633 2105 c4 -8 2 -17 -3 -20 -6 -4 -10 -1 -10 5 0 6 -10 8 -25 4
-13 -3 -57 -9 -97 -14 -71 -7 -70 -7 40 -7 111 0 112 0 112 23 0 13 -5 24 -11
24 -6 0 -9 -7 -6 -15z"/>
<path d="M2386 2086 c3 -9 13 -16 22 -16 8 0 13 1 11 3 -2 1 -12 9 -22 16 -15
12 -17 12 -11 -3z"/>
<path d="M1640 1968 c-5 -39 -3 -168 3 -168 4 0 7 38 6 85 -1 47 -3 85 -5 85
-2 0 -4 -1 -4 -2z"/>
<path d="M3620 1966 c0 -9 30 -14 35 -6 4 6 -3 10 -14 10 -12 0 -21 -2 -21 -4z"/>
<path d="M3398 1886 c5 -98 17 -103 17 -7 0 45 -4 78 -10 78 -6 0 -9 -28 -7
-71z"/>
<path d="M1356 1927 c3 -10 9 -15 12 -12 3 3 0 11 -7 18 -10 9 -11 8 -5 -6z"/>
<path d="M1557 1923 c-11 -10 -8 -103 3 -103 5 0 9 25 9 55 -1 57 -2 59 -12
48z"/>
<path d="M3536 1915 c-3 -8 -1 -15 4 -15 6 0 10 7 10 15 0 8 -2 15 -4 15 -2 0
-6 -7 -10 -15z"/>
<path d="M2661 1904 c0 -11 3 -14 6 -6 3 7 2 16 -1 19 -3 4 -6 -2 -5 -13z"/>
<path d="M2090 1901 c0 -5 7 -11 15 -15 8 -3 15 -1 15 3 0 5 -7 11 -15 15 -8
3 -15 1 -15 -3z"/>
<path d="M1695 1890 c3 -5 8 -10 11 -10 2 0 4 5 4 10 0 6 -5 10 -11 10 -5 0
-7 -4 -4 -10z"/>
<path d="M1770 1850 c0 -27 5 -50 10 -50 6 0 10 23 10 50 0 28 -4 50 -10 50
-5 0 -10 -22 -10 -50z"/>
<path d="M1837 1858 c8 -57 13 -61 13 -10 0 22 -4 43 -9 46 -5 4 -7 -12 -4
-36z"/>
<path d="M1975 1849 c0 -27 2 -49 6 -49 8 0 10 74 1 87 -4 6 -7 -11 -7 -38z"/>
<path d="M2495 1855 c0 -24 3 -41 7 -39 10 7 10 71 1 77 -5 3 -8 -14 -8 -38z"/>
<path d="M2561 1884 c0 -11 3 -14 6 -6 3 7 2 16 -1 19 -3 4 -6 -2 -5 -13z"/>
<path d="M1493 1845 c0 -27 2 -38 4 -22 2 15 2 37 0 50 -2 12 -4 0 -4 -28z"/>
<path d="M1913 1855 c0 -22 2 -30 4 -17 2 12 2 30 0 40 -3 9 -5 -1 -4 -23z"/>
<path d="M2432 1870 c0 -14 2 -19 5 -12 2 6 2 18 0 25 -3 6 -5 1 -5 -13z"/>
<path d="M1361 1864 c0 -11 3 -14 6 -6 3 7 2 16 -1 19 -3 4 -6 -2 -5 -13z"/>
<path d="M2662 1850 c0 -19 2 -27 5 -17 2 9 2 25 0 35 -3 9 -5 1 -5 -18z"/>
<path d="M2113 1835 c0 -22 2 -30 4 -17 2 12 2 30 0 40 -3 9 -5 -1 -4 -23z"/>
<path d="M2811 1854 c0 -11 3 -14 6 -6 3 7 2 16 -1 19 -3 4 -6 -2 -5 -13z"/>
<path d="M2943 1835 c0 -22 2 -30 4 -17 2 12 2 30 0 40 -3 9 -5 -1 -4 -23z"/>
<path d="M3012 1840 c0 -19 2 -27 5 -17 2 9 2 25 0 35 -3 9 -5 1 -5 -18z"/>
<path d="M1712 1830 c0 -19 2 -27 5 -17 2 9 2 25 0 35 -3 9 -5 1 -5 -18z"/>
<path d="M2877 1830 c-3 -11 -1 -23 4 -26 5 -3 9 6 9 20 0 31 -6 34 -13 6z"/>
<path d="M2270 1825 c0 -8 4 -15 10 -15 5 0 7 7 4 15 -4 8 -8 15 -10 15 -2 0
-4 -7 -4 -15z"/>
<path d="M2431 1824 c0 -11 3 -14 6 -6 3 7 2 16 -1 19 -3 4 -6 -2 -5 -13z"/>
<path d="M3655 1820 c-3 -5 -1 -10 4 -10 6 0 11 5 11 10 0 6 -2 10 -4 10 -3 0
-8 -4 -11 -10z"/>
<path d="M3478 1803 c7 -3 16 -2 19 1 4 3 -2 6 -13 5 -11 0 -14 -3 -6 -6z"/>
</g>
</svg>
