<?xml version="1.0" standalone="no"?>
<!DOCTYPE svg PUBLIC "-//W3C//DTD SVG 20010904//EN"
 "http://www.w3.org/TR/2001/REC-SVG-20010904/DTD/svg10.dtd">
<svg version="1.0" xmlns="http://www.w3.org/2000/svg"
 width="1280.000000pt" height="1280.000000pt" viewBox="0 0 1280.000000 1280.000000"
 preserveAspectRatio="xMidYMid meet">
<metadata>
Created by potrace 1.14, written by Peter Selinger 2001-2017
</metadata>
<g transform="translate(0.000000,1280.000000) scale(0.100000,-0.100000)"
fill="#000000" stroke="none">
<path d="M0 6400 l0 -6400 6400 0 6400 0 0 6400 0 6400 -6400 0 -6400 0 0
-6400z m7858 343 l2 -1463 -95 0 c-88 0 -95 1 -95 20 0 18 7 20 75 20 l75 0
-2 1423 -3 1422 -1145 0 c-1086 0 -1149 -1 -1215 -19 -203 -54 -370 -208 -443
-408 l-27 -73 -3 -1172 -2 -1173 320 0 c313 0 320 0 320 -20 0 -20 -7 -20
-340 -20 l-340 0 0 1465 0 1465 1458 -2 1457 -3 3 -1462z m-227 475 c72 -40
79 -128 15 -184 l-35 -31 33 -15 c56 -27 82 -109 52 -166 -34 -65 -105 -98
-192 -89 -64 7 -94 22 -94 47 0 28 11 31 65 14 63 -19 108 -10 140 28 58 68 1
158 -100 158 -31 0 -35 3 -35 25 0 22 4 25 36 25 63 0 103 33 104 86 0 59 -63
86 -139 60 -53 -19 -48 -20 -54 4 -14 53 129 81 204 38z m-1341 -468 c0 -26
-3 -28 -72 -39 -40 -6 -78 -17 -85 -23 -20 -17 -19 -1291 1 -1311 20 -20 211
-30 346 -18 200 17 263 67 348 274 9 20 18 27 39 27 56 0 56 -7 4 -150 -27
-74 -55 -159 -62 -188 l-13 -52 -523 3 c-287 2 -526 6 -529 10 -4 3 -4 18 0
32 6 22 12 25 49 26 23 0 58 5 77 12 31 11 36 17 42 57 8 58 10 1172 2 1234
-7 50 -14 54 -124 74 -39 6 -45 11 -48 34 l-3 26 275 0 276 0 0 -28z m1024
-44 c29 -26 36 -41 36 -70 0 -44 -22 -91 -49 -106 -30 -15 -104 -12 -130 6
-65 46 -58 152 11 191 44 24 93 16 132 -21z m34 -439 c8 -10 8 -40 1 -106 -12
-106 -8 -756 5 -783 9 -19 64 -38 112 -38 34 0 46 -15 38 -47 -5 -17 -20 -18
-250 -18 l-244 0 0 31 c0 30 1 31 54 37 88 9 93 14 101 109 4 46 5 203 3 349
-3 245 -5 269 -22 288 -18 20 -50 30 -111 34 -24 2 -31 7 -33 29 -3 22 2 28
20 32 133 28 176 39 225 57 32 12 62 25 68 30 13 12 21 11 33 -4z m-3116
-1312 c-3 -58 0 -105 4 -105 5 0 23 9 39 20 54 35 105 22 124 -31 6 -18 11
-72 11 -121 0 -85 1 -89 25 -98 40 -15 30 -20 -45 -20 -67 0 -92 12 -49 23 20
5 21 11 17 102 -2 82 -6 99 -22 111 -26 18 -56 18 -84 -2 -20 -14 -22 -23 -22
-110 0 -92 1 -95 25 -104 40 -15 30 -20 -45 -20 -40 0 -70 4 -70 10 0 6 9 10
20 10 19 0 20 7 20 193 0 191 0 194 -22 204 -21 9 -19 11 22 25 25 9 47 16 50
17 3 0 4 -46 2 -104z m-682 75 c0 -4 -11 -11 -25 -14 l-25 -6 0 -189 c0 -209
-3 -201 68 -201 68 0 107 17 128 55 17 33 34 46 34 27 0 -5 -7 -29 -16 -55
l-16 -47 -154 0 c-96 0 -154 4 -154 10 0 6 11 10 25 10 l25 0 -2 198 c-3 196
-3 197 -25 200 -13 2 -23 7 -23 12 0 5 36 9 80 9 44 0 80 -4 80 -9z m2546 -3
c13 -12 17 -107 5 -107 -6 0 -11 7 -11 15 0 8 -12 28 -27 45 -23 25 -38 32
-83 36 -50 5 -59 3 -96 -24 -56 -41 -79 -91 -79 -172 0 -116 69 -200 164 -200
57 0 103 27 121 69 24 59 41 27 19 -37 -13 -38 -53 -52 -147 -52 -130 0 -213
75 -220 201 -3 55 0 74 22 117 27 53 69 91 121 111 31 11 199 10 211 -2z
m2334 3 c0 -4 -11 -11 -25 -14 l-25 -6 0 -189 c0 -209 -3 -201 68 -201 69 0
108 17 126 55 16 33 44 51 33 21 -3 -8 -11 -32 -18 -55 l-12 -41 -154 0 c-100
0 -152 3 -148 10 3 6 15 10 26 10 19 0 19 7 17 198 -3 196 -3 197 -25 200 -13
2 -23 7 -23 12 0 5 36 8 80 8 44 0 80 -3 80 -8z m370 0 c0 -4 -11 -11 -25 -14
l-25 -6 0 -183 c0 -129 4 -187 12 -195 16 -16 101 -15 142 2 20 8 37 25 45 45
18 41 35 40 26 -1 -18 -83 -7 -78 -175 -78 -93 0 -150 4 -150 10 0 6 9 10 19
10 10 0 22 7 25 16 10 27 7 344 -4 365 -6 10 -17 19 -25 19 -8 0 -15 4 -15 9
0 5 34 9 75 9 41 0 75 -3 75 -8z m584 -1 c9 -10 17 -109 9 -109 -5 0 -17 16
-26 35 -22 47 -67 68 -129 63 -141 -14 -199 -224 -96 -349 22 -26 75 -49 115
-49 48 0 102 33 116 70 12 32 42 43 34 13 -3 -10 -8 -31 -11 -46 -13 -58 -162
-80 -250 -37 -131 63 -164 228 -69 340 57 66 100 82 211 77 51 -2 94 -6 96 -8z
m-5529 -39 c0 -20 -5 -25 -25 -25 -20 0 -26 6 -28 28 -3 26 -1 28 25 25 22 -2
28 -8 28 -28z m728 18 c7 -20 -12 -48 -33 -48 -19 0 -36 32 -25 50 9 14 52 12
58 -2z m-530 -128 c49 3 59 1 52 -10 -3 -5 -24 -10 -46 -10 l-39 0 0 -99 c0
-115 11 -137 63 -127 30 6 30 6 12 -14 -12 -13 -31 -20 -56 -20 -59 0 -69 23
-69 152 0 105 -1 108 -22 109 l-23 0 23 16 c12 8 22 22 22 31 0 9 10 27 23 40
l22 24 3 -47 c3 -45 4 -46 35 -45z m2833 0 c28 0 43 -4 39 -10 -3 -5 -24 -10
-46 -10 l-39 0 0 -99 c0 -111 12 -138 56 -127 13 4 24 2 24 -3 0 -15 -35 -31
-69 -31 -50 0 -61 28 -61 152 0 101 -1 108 -20 108 -11 0 -20 4 -20 9 0 5 9
11 20 14 12 3 20 14 20 26 0 11 10 30 23 41 l22 21 3 -45 3 -46 45 0z m-3026
-121 c0 -122 1 -131 20 -136 43 -11 17 -23 -50 -23 -40 0 -70 4 -70 10 0 6 9
10 19 10 26 0 31 18 31 121 0 88 -1 90 -26 100 -15 5 -25 11 -22 14 4 4 78 32
91 34 4 0 7 -58 7 -130z m722 21 c-5 -130 1 -160 28 -160 11 0 20 -4 20 -10 0
-6 -30 -10 -70 -10 -40 0 -70 4 -70 10 0 6 9 10 20 10 19 0 20 7 20 109 0 104
-1 109 -22 114 -12 4 -19 10 -14 14 6 6 62 27 86 32 3 1 4 -48 2 -109z m168 4
c0 -58 4 -114 10 -124 13 -24 53 -33 84 -18 25 11 26 14 26 111 0 90 -2 99
-20 104 -29 8 -24 23 8 23 15 0 37 3 49 6 21 6 21 4 16 -74 -8 -109 2 -171 29
-181 26 -10 13 -18 -40 -27 -32 -5 -41 -3 -44 10 -3 14 -6 14 -32 1 -41 -21
-89 -19 -111 6 -15 15 -20 42 -25 117 -6 102 -12 122 -36 122 -31 0 -12 19 24
23 20 2 43 4 50 5 9 2 12 -25 12 -104z m360 81 c0 -11 8 -10 35 6 42 25 99 19
115 -12 11 -19 12 -19 48 6 44 30 81 32 113 6 22 -18 24 -29 29 -133 5 -108 6
-113 28 -116 50 -7 18 -22 -48 -22 -67 0 -93 12 -50 23 18 5 20 14 20 91 0
106 -12 136 -54 136 -58 -1 -66 -16 -66 -129 0 -94 1 -101 20 -101 11 0 20 -4
20 -10 0 -6 -30 -10 -70 -10 -40 0 -70 4 -70 10 0 6 9 10 19 10 10 0 22 7 25
16 10 25 7 125 -5 166 -12 45 -47 60 -88 37 -24 -14 -26 -21 -29 -94 -4 -99 2
-125 28 -125 11 0 20 -4 20 -10 0 -6 -30 -10 -70 -10 -67 0 -93 12 -50 23 18
5 20 14 20 110 0 98 -1 106 -21 112 -26 8 -18 17 29 31 41 12 52 10 52 -11z
m1142 -56 c-6 -132 27 -193 92 -173 32 10 36 22 36 122 0 86 -2 94 -20 99 -32
8 -23 23 15 25 19 0 40 1 46 2 8 1 11 -32 10 -106 -2 -111 7 -148 36 -148 31
0 -1 -18 -44 -25 -36 -6 -43 -4 -43 9 0 15 -3 15 -31 1 -45 -24 -98 -16 -123
18 -16 22 -21 46 -24 123 -4 84 -7 97 -23 101 -31 9 -21 22 19 26 58 6 57 6
54 -74z m414 75 c15 -4 23 -16 26 -35 6 -41 -8 -60 -21 -27 -12 32 -44 51 -72
43 -16 -5 -19 -14 -17 -38 2 -26 13 -38 60 -69 62 -41 76 -66 58 -107 -16 -39
-53 -56 -113 -54 -54 3 -67 13 -67 56 0 32 16 36 25 7 16 -50 83 -61 106 -19
14 28 -8 60 -63 91 -55 30 -74 67 -56 105 21 44 75 63 134 47z m509 -8 c43
-18 64 -51 71 -112 12 -101 -43 -164 -144 -164 -48 0 -58 4 -87 33 -56 56 -59
147 -8 208 42 50 101 62 168 35z m225 -7 l0 -21 34 21 c44 28 81 27 112 -4
l24 -24 38 25 c42 29 95 28 117 -3 15 -20 25 -92 25 -176 0 -50 3 -60 20 -64
43 -11 17 -23 -50 -23 -40 0 -70 4 -70 10 0 6 9 10 20 10 27 0 34 35 26 129
-7 83 -19 101 -66 101 -50 0 -61 -26 -58 -131 3 -89 4 -94 26 -97 50 -7 18
-22 -48 -22 -67 0 -93 12 -50 23 18 5 20 14 20 98 0 104 -12 129 -61 129 -50
0 -59 -21 -59 -131 0 -92 1 -99 20 -99 11 0 20 -4 20 -10 0 -6 -30 -10 -70
-10 -40 0 -70 4 -70 10 0 6 9 10 19 10 26 0 31 19 31 113 0 86 -4 97 -34 114
-16 9 -13 12 25 25 59 21 59 21 59 -3z m569 15 c28 -6 31 -10 31 -41 l0 -35
-29 31 c-16 17 -36 31 -44 31 -15 0 -47 -25 -47 -36 0 -19 28 -49 75 -79 64
-40 76 -69 49 -114 -22 -37 -69 -55 -121 -45 -43 8 -53 18 -53 57 0 33 12 35
25 5 20 -45 85 -56 105 -19 14 26 -9 61 -60 91 -76 44 -87 109 -23 144 32 17
47 19 92 10z"/>
<path d="M7055 4845 c-16 -15 -25 -36 -26 -57 -4 -114 27 -168 95 -168 81 0
92 180 14 234 -32 22 -55 20 -83 -9z"/>
</g>
</svg>
